<?xml version="1.0" encoding="utf-8"?>
<svg version="1.1" id="Layer_1" x="0" y="0" viewBox="0 0 55.2 38.4" style="enable-background:new 0 0 55.2 38.4" xmlns="http://www.w3.org/2000/svg">
  <style>.st0{fill:#009b3a}.st3{fill:#fff}.st4{fill-rule:evenodd;clip-rule:evenodd;fill:#009b3a}</style>
  <path class="st0" d="M3.03 0h49.13c1.67 0 3.03 1.36 3.03 3.03v32.33c0 1.67-1.36 3.03-3.03 3.03H3.03A3.02 3.02 0 0 1 0 35.37V3.03C0 1.36 1.36 0 3.03 0z"/>
  <path style="fill:#fedf00" d="M4.24 19.2 27.6 34.11 50.96 19.2 27.6 4.29 4.24 19.2z"/>
  <path d="M27.6 9.35c5.44 0 9.85 4.41 9.85 9.85 0 5.44-4.41 9.85-9.85 9.85-5.44 0-9.85-4.41-9.85-9.85 0-5.44 4.41-9.85 9.85-9.85z" style="fill:#002776"/>
  <path class="st3" d="M18.59 15.22c1.1-.16 2.23-.24 3.38-.24 5.86 0 11.22 2.11 15.38 5.6a8.84 8.84 0 0 1-.35 1.56 22.4 22.4 0 0 0-15.03-5.76c-1.33 0-2.64.12-3.91.34.14-.52.32-1.02.53-1.5z"/>
</svg>